<svg xmlns="http://www.w3.org/2000/svg" xmlns:xlink="http://www.w3.org/1999/xlink" width="500" zoomAndPan="magnify" viewBox="0 0 375 374.999991" height="500" preserveAspectRatio="xMidYMid meet" version="1.0"><defs><clipPath id="52e0893c72"><path d="M 227.933594 3.855469 L 339.945312 3.855469 L 339.945312 371 L 227.933594 371 Z M 227.933594 3.855469 " clip-rule="nonzero"/></clipPath><clipPath id="538ef3b94b"><path d="M 339.945312 41.191406 L 339.945312 371.148438 L 227.933594 333.8125 L 227.933594 3.855469 Z M 339.945312 41.191406 " clip-rule="nonzero"/></clipPath><clipPath id="14387f2717"><path d="M 132.210938 3.742188 L 227.9375 3.742188 L 227.9375 109.191406 L 132.210938 109.191406 Z M 132.210938 3.742188 " clip-rule="nonzero"/></clipPath><clipPath id="893ef49b2a"><path d="M 132.210938 35.0625 L 132.210938 109.191406 L 227.9375 77.976562 L 227.9375 3.84375 Z M 132.210938 35.0625 " clip-rule="nonzero"/></clipPath><clipPath id="68508ecd76"><path d="M 92.019531 94.476562 L 172.382812 94.476562 L 172.382812 314.847656 L 92.019531 314.847656 Z M 92.019531 94.476562 " clip-rule="nonzero"/></clipPath><clipPath id="3d13e3df2e"><path d="M 172.382812 121.265625 L 172.382812 314.703125 L 92.019531 287.917969 L 92.019531 94.476562 Z M 172.382812 121.265625 " clip-rule="nonzero"/></clipPath><clipPath id="2b839e8790"><path d="M 28.71875 94.382812 L 92.027344 94.382812 L 92.027344 223.476562 L 28.71875 223.476562 Z M 28.71875 94.382812 " clip-rule="nonzero"/></clipPath><clipPath id="250fbbd8db"><path d="M 28.71875 115.574219 L 28.71875 223.476562 L 92.027344 202.371094 L 92.027344 94.472656 Z M 28.71875 115.574219 " clip-rule="nonzero"/></clipPath></defs><g clip-path="url(#52e0893c72)"><g clip-path="url(#538ef3b94b)"><path fill="#231f20" d="M 339.945312 3.855469 L 339.945312 370.949219 L 227.933594 370.949219 L 227.933594 3.855469 Z M 339.945312 3.855469 " fill-opacity="1" fill-rule="nonzero"/></g></g><g clip-path="url(#14387f2717)"><g clip-path="url(#893ef49b2a)"><path fill="#161e2c" d="M 132.210938 109.191406 L 132.210938 3.742188 L 227.9375 3.742188 L 227.9375 109.191406 Z M 132.210938 109.191406 " fill-opacity="1" fill-rule="nonzero"/></g></g><g clip-path="url(#68508ecd76)"><g clip-path="url(#3d13e3df2e)"><path fill="#231f20" d="M 172.382812 94.476562 L 172.382812 314.847656 L 92.019531 314.847656 L 92.019531 94.476562 Z M 172.382812 94.476562 " fill-opacity="1" fill-rule="nonzero"/></g></g><g clip-path="url(#2b839e8790)"><g clip-path="url(#250fbbd8db)"><path fill="#161e2c" d="M 28.71875 223.476562 L 28.71875 94.382812 L 92.027344 94.382812 L 92.027344 223.476562 Z M 28.71875 223.476562 " fill-opacity="1" fill-rule="nonzero"/></g></g></svg>