<svg xmlns="http://www.w3.org/2000/svg" xmlns:xlink="http://www.w3.org/1999/xlink" width="500" zoomAndPan="magnify" viewBox="0 0 375 374.999991" height="500" preserveAspectRatio="xMidYMid meet" version="1.0"><defs><g/><clipPath id="87fb5efe90"><path d="M 7.203125 123.195312 L 143.96875 123.195312 L 143.96875 259.960938 L 7.203125 259.960938 Z M 7.203125 123.195312 " clip-rule="nonzero"/></clipPath><clipPath id="a8e52e3309"><path d="M 75.585938 123.195312 C 37.820312 123.195312 7.203125 153.8125 7.203125 191.578125 C 7.203125 229.34375 37.820312 259.960938 75.585938 259.960938 C 113.351562 259.960938 143.96875 229.34375 143.96875 191.578125 C 143.96875 153.8125 113.351562 123.195312 75.585938 123.195312 Z M 75.585938 123.195312 " clip-rule="nonzero"/></clipPath></defs><g clip-path="url(#87fb5efe90)"><g clip-path="url(#a8e52e3309)"><path fill="#2b63e8" d="M 7.203125 123.195312 L 143.96875 123.195312 L 143.96875 259.960938 L 7.203125 259.960938 Z M 7.203125 123.195312 " fill-opacity="1" fill-rule="nonzero"/></g></g><g fill="#ffffff" fill-opacity="1"><g transform="translate(12.798169, 210.960938)"><g><path d="M 39.0625 -10.765625 L 15.734375 -10.765625 L 11.28125 0 L -0.640625 0 L 21.765625 -50.265625 L 33.25 -50.265625 L 55.71875 0 L 43.515625 0 Z M 35.40625 -19.609375 L 27.4375 -38.84375 L 19.46875 -19.609375 Z M 35.40625 -19.609375 "/></g></g></g><g fill="#ffffff" fill-opacity="1"><g transform="translate(67.801583, 210.960938)"><g><path d="M 45.03125 -38.640625 L 45.03125 -6.46875 C 45.03125 0.625 43.1875 5.890625 39.5 9.328125 C 35.8125 12.773438 30.425781 14.5 23.34375 14.5 C 19.601562 14.5 16.054688 14.046875 12.703125 13.140625 C 9.359375 12.234375 6.582031 10.914062 4.375 9.1875 L 8.828125 1.15625 C 10.460938 2.488281 12.523438 3.550781 15.015625 4.34375 C 17.503906 5.132812 19.992188 5.53125 22.484375 5.53125 C 26.359375 5.53125 29.21875 4.65625 31.0625 2.90625 C 32.90625 1.15625 33.828125 -1.488281 33.828125 -5.03125 L 33.828125 -6.671875 C 30.898438 -3.460938 26.828125 -1.859375 21.609375 -1.859375 C 18.066406 -1.859375 14.820312 -2.632812 11.875 -4.1875 C 8.9375 -5.75 6.601562 -7.941406 4.875 -10.765625 C 3.15625 -13.597656 2.296875 -16.851562 2.296875 -20.53125 C 2.296875 -24.21875 3.15625 -27.472656 4.875 -30.296875 C 6.601562 -33.128906 8.9375 -35.320312 11.875 -36.875 C 14.820312 -38.425781 18.066406 -39.203125 21.609375 -39.203125 C 27.210938 -39.203125 31.472656 -37.363281 34.390625 -33.6875 L 34.390625 -38.640625 Z M 23.84375 -11.0625 C 26.8125 -11.0625 29.238281 -11.929688 31.125 -13.671875 C 33.019531 -15.421875 33.96875 -17.707031 33.96875 -20.53125 C 33.96875 -23.363281 33.019531 -25.648438 31.125 -27.390625 C 29.238281 -29.140625 26.8125 -30.015625 23.84375 -30.015625 C 20.875 -30.015625 18.429688 -29.140625 16.515625 -27.390625 C 14.597656 -25.648438 13.640625 -23.363281 13.640625 -20.53125 C 13.640625 -17.707031 14.597656 -15.421875 16.515625 -13.671875 C 18.429688 -11.929688 20.875 -11.0625 23.84375 -11.0625 Z M 23.84375 -11.0625 "/></g></g></g><g fill="#ffffff" fill-opacity="1"><g transform="translate(118.065793, 210.960938)"><g><path d="M 5.171875 -38.640625 L 16.375 -38.640625 L 16.375 0 L 5.171875 0 Z M 10.765625 -44.015625 C 8.710938 -44.015625 7.035156 -44.613281 5.734375 -45.8125 C 4.441406 -47.007812 3.796875 -48.492188 3.796875 -50.265625 C 3.796875 -52.035156 4.441406 -53.519531 5.734375 -54.71875 C 7.035156 -55.914062 8.710938 -56.515625 10.765625 -56.515625 C 12.828125 -56.515625 14.503906 -55.9375 15.796875 -54.78125 C 17.085938 -53.632812 17.734375 -52.203125 17.734375 -50.484375 C 17.734375 -48.617188 17.085938 -47.070312 15.796875 -45.84375 C 14.503906 -44.625 12.828125 -44.015625 10.765625 -44.015625 Z M 10.765625 -44.015625 "/></g></g></g><g fill="#ffffff" fill-opacity="1"><g transform="translate(139.694342, 210.960938)"><g/></g></g><g fill="#012550" fill-opacity="1"><g transform="translate(146.509769, 215.8702)"><g><path d="M 52.0625 -50.265625 L 52.0625 0 L 42.515625 0 L 17.453125 -30.515625 L 17.453125 0 L 5.953125 0 L 5.953125 -50.265625 L 15.578125 -50.265625 L 40.578125 -19.75 L 40.578125 -50.265625 Z M 52.0625 -50.265625 "/></g></g></g><g fill="#012550" fill-opacity="1"><g transform="translate(204.529023, 215.8702)"><g><path d="M 23.546875 0.578125 C 19.484375 0.578125 15.832031 -0.269531 12.59375 -1.96875 C 9.363281 -3.675781 6.835938 -6.035156 5.015625 -9.046875 C 3.203125 -12.066406 2.296875 -15.488281 2.296875 -19.3125 C 2.296875 -23.144531 3.203125 -26.566406 5.015625 -29.578125 C 6.835938 -32.597656 9.363281 -34.957031 12.59375 -36.65625 C 15.832031 -38.351562 19.484375 -39.203125 23.546875 -39.203125 C 27.617188 -39.203125 31.257812 -38.351562 34.46875 -36.65625 C 37.675781 -34.957031 40.1875 -32.597656 42 -29.578125 C 43.820312 -26.566406 44.734375 -23.144531 44.734375 -19.3125 C 44.734375 -15.488281 43.820312 -12.066406 42 -9.046875 C 40.1875 -6.035156 37.675781 -3.675781 34.46875 -1.96875 C 31.257812 -0.269531 27.617188 0.578125 23.546875 0.578125 Z M 23.546875 -8.625 C 26.421875 -8.625 28.78125 -9.59375 30.625 -11.53125 C 32.46875 -13.46875 33.390625 -16.0625 33.390625 -19.3125 C 33.390625 -22.570312 32.46875 -25.171875 30.625 -27.109375 C 28.78125 -29.046875 26.421875 -30.015625 23.546875 -30.015625 C 20.679688 -30.015625 18.3125 -29.046875 16.4375 -27.109375 C 14.570312 -25.171875 13.640625 -22.570312 13.640625 -19.3125 C 13.640625 -16.0625 14.570312 -13.46875 16.4375 -11.53125 C 18.3125 -9.59375 20.679688 -8.625 23.546875 -8.625 Z M 23.546875 -8.625 "/></g></g></g><g fill="#012550" fill-opacity="1"><g transform="translate(251.56197, 215.8702)"><g><path d="M 30.09375 -1.859375 C 28.988281 -1.046875 27.632812 -0.4375 26.03125 -0.03125 C 24.425781 0.375 22.738281 0.578125 20.96875 0.578125 C 16.375 0.578125 12.816406 -0.59375 10.296875 -2.9375 C 7.785156 -5.289062 6.53125 -8.738281 6.53125 -13.28125 L 6.53125 -29.15625 L 0.578125 -29.15625 L 0.578125 -37.765625 L 6.53125 -37.765625 L 6.53125 -47.1875 L 17.734375 -47.1875 L 17.734375 -37.765625 L 27.359375 -37.765625 L 27.359375 -29.15625 L 17.734375 -29.15625 L 17.734375 -13.421875 C 17.734375 -11.796875 18.148438 -10.539062 18.984375 -9.65625 C 19.828125 -8.769531 21.015625 -8.328125 22.546875 -8.328125 C 24.316406 -8.328125 25.828125 -8.804688 27.078125 -9.765625 Z M 30.09375 -1.859375 "/></g></g></g><g fill="#012550" fill-opacity="1"><g transform="translate(282.797587, 215.8702)"><g><path d="M 20.75 -39.203125 C 26.738281 -39.203125 31.335938 -37.773438 34.546875 -34.921875 C 37.753906 -32.078125 39.359375 -27.785156 39.359375 -22.046875 L 39.359375 0 L 28.875 0 L 28.875 -4.8125 C 26.757812 -1.21875 22.832031 0.578125 17.09375 0.578125 C 14.125 0.578125 11.550781 0.078125 9.375 -0.921875 C 7.195312 -1.929688 5.53125 -3.320312 4.375 -5.09375 C 3.226562 -6.863281 2.65625 -8.875 2.65625 -11.125 C 2.65625 -14.71875 4.003906 -17.539062 6.703125 -19.59375 C 9.410156 -21.65625 13.59375 -22.6875 19.25 -22.6875 L 28.15625 -22.6875 C 28.15625 -25.132812 27.410156 -27.015625 25.921875 -28.328125 C 24.441406 -29.648438 22.21875 -30.3125 19.25 -30.3125 C 17.1875 -30.3125 15.160156 -29.984375 13.171875 -29.328125 C 11.191406 -28.679688 9.503906 -27.8125 8.109375 -26.71875 L 4.09375 -34.546875 C 6.195312 -36.023438 8.722656 -37.171875 11.671875 -37.984375 C 14.617188 -38.796875 17.644531 -39.203125 20.75 -39.203125 Z M 19.890625 -6.96875 C 21.804688 -6.96875 23.503906 -7.410156 24.984375 -8.296875 C 26.472656 -9.179688 27.53125 -10.484375 28.15625 -12.203125 L 28.15625 -16.15625 L 20.46875 -16.15625 C 15.875 -16.15625 13.578125 -14.648438 13.578125 -11.640625 C 13.578125 -10.203125 14.140625 -9.0625 15.265625 -8.21875 C 16.390625 -7.382812 17.929688 -6.96875 19.890625 -6.96875 Z M 19.890625 -6.96875 "/></g></g></g><g fill="#012550" fill-opacity="1"><g transform="translate(327.101905, 215.8702)"><g><path d="M 18.171875 0.578125 C 14.960938 0.578125 11.828125 0.179688 8.765625 -0.609375 C 5.703125 -1.398438 3.257812 -2.394531 1.4375 -3.59375 L 5.171875 -11.640625 C 6.890625 -10.535156 8.96875 -9.632812 11.40625 -8.9375 C 13.851562 -8.25 16.25 -7.90625 18.59375 -7.90625 C 23.332031 -7.90625 25.703125 -9.078125 25.703125 -11.421875 C 25.703125 -12.515625 25.054688 -13.300781 23.765625 -13.78125 C 22.472656 -14.257812 20.488281 -14.671875 17.8125 -15.015625 C 14.644531 -15.492188 12.03125 -16.039062 9.96875 -16.65625 C 7.914062 -17.28125 6.132812 -18.378906 4.625 -19.953125 C 3.125 -21.535156 2.375 -23.789062 2.375 -26.71875 C 2.375 -29.15625 3.078125 -31.316406 4.484375 -33.203125 C 5.898438 -35.097656 7.957031 -36.570312 10.65625 -37.625 C 13.363281 -38.675781 16.5625 -39.203125 20.25 -39.203125 C 22.976562 -39.203125 25.691406 -38.90625 28.390625 -38.3125 C 31.097656 -37.71875 33.335938 -36.890625 35.109375 -35.828125 L 31.375 -27.859375 C 27.976562 -29.773438 24.269531 -30.734375 20.25 -30.734375 C 17.851562 -30.734375 16.054688 -30.394531 14.859375 -29.71875 C 13.660156 -29.050781 13.0625 -28.191406 13.0625 -27.140625 C 13.0625 -25.941406 13.707031 -25.101562 15 -24.625 C 16.300781 -24.144531 18.363281 -23.691406 21.1875 -23.265625 C 24.34375 -22.742188 26.925781 -22.179688 28.9375 -21.578125 C 30.945312 -20.984375 32.691406 -19.894531 34.171875 -18.3125 C 35.660156 -16.726562 36.40625 -14.523438 36.40625 -11.703125 C 36.40625 -9.304688 35.6875 -7.175781 34.25 -5.3125 C 32.8125 -3.445312 30.71875 -2 27.96875 -0.96875 C 25.21875 0.0625 21.953125 0.578125 18.171875 0.578125 Z M 18.171875 0.578125 "/></g></g></g></svg>